<svg width="49" height="49" viewBox="0 0 49 49" fill="none" xmlns="http://www.w3.org/2000/svg">
<path d="M38.5 38.499H10.5V16.499H38.5M32.5 2.49902V6.49902H16.5V2.49902H12.5V6.49902H10.5C8.28 6.49902 6.5 8.27902 6.5 10.499V38.499C6.5 39.5599 6.92143 40.5773 7.67157 41.3274C8.42172 42.0776 9.43913 42.499 10.5 42.499H38.5C39.5609 42.499 40.5783 42.0776 41.3284 41.3274C42.0786 40.5773 42.5 39.5599 42.5 38.499V10.499C42.5 9.43816 42.0786 8.42074 41.3284 7.6706C40.5783 6.92045 39.5609 6.49902 38.5 6.49902H36.5V2.49902M34.5 24.499H24.5V34.499H34.5V24.499Z" fill="url(#paint0_linear_254_317)"/>
<defs>
<linearGradient id="paint0_linear_254_317" x1="24.5" y1="2.49902" x2="24.5" y2="42.499" gradientUnits="userSpaceOnUse">
<stop stop-color="#D561F8"/>
<stop offset="1" stop-color="#EEA856"/>
</linearGradient>
</defs>
</svg>
