<svg width="40" height="37" viewBox="0 0 40 37" fill="none" xmlns="http://www.w3.org/2000/svg">
<path d="M20.2 31.098L20 31.298L19.78 31.098C10.28 22.478 4 16.778 4 10.998C4 6.99805 7 3.99805 11 3.99805C14.08 3.99805 17.08 5.99805 18.14 8.71805H21.86C22.92 5.99805 25.92 3.99805 29 3.99805C33 3.99805 36 6.99805 36 10.998C36 16.778 29.72 22.478 20.2 31.098ZM29 -0.00195312C25.52 -0.00195312 22.18 1.61805 20 4.15805C17.82 1.61805 14.48 -0.00195312 11 -0.00195312C4.84 -0.00195312 0 4.81805 0 10.998C0 18.538 6.8 24.718 17.1 34.058L20 36.698L22.9 34.058C33.2 24.718 40 18.538 40 10.998C40 4.81805 35.16 -0.00195312 29 -0.00195312Z" fill="url(#paint0_linear_254_325)"/>
<defs>
<linearGradient id="paint0_linear_254_325" x1="20" y1="-0.00195313" x2="20" y2="36.698" gradientUnits="userSpaceOnUse">
<stop stop-color="#D561F8"/>
<stop offset="1" stop-color="#EEA856"/>
</linearGradient>
</defs>
</svg>
